<svg width="78" height="29" viewBox="0 0 78 29" fill="none" xmlns="http://www.w3.org/2000/svg">
<path fill-rule="evenodd" clip-rule="evenodd" d="M45.8652 27.4909V4.75195H50.8911V27.4909H45.8652Z" fill="#5500F9"/>
<path fill-rule="evenodd" clip-rule="evenodd" d="M1.42578 0.509037L5.17575 22.8949C5.66745 25.8344 8.35 28 11.4994 28C14.6456 28 17.3282 25.8373 17.8199 22.8979L20.3686 7.71795C20.4744 7.08533 21.0501 6.62043 21.7285 6.62043C22.4038 6.62043 22.9827 7.08533 23.0885 7.71795L25.6372 22.8949C26.132 25.8373 28.8146 28.0029 31.9639 28.0029C35.1102 28.0029 37.7896 25.8432 38.2875 22.9067L41.1039 6.32619C41.2564 5.41992 42.0842 4.75494 43.052 4.75494H45.8684V0H43.052C39.6133 0 36.6849 2.35982 36.1403 5.56999L33.3239 22.1505C33.215 22.7831 32.6392 23.248 31.9608 23.248C31.2824 23.248 30.7036 22.7802 30.5978 22.1475L28.049 6.97058C27.5542 4.03111 24.8748 1.86549 21.7254 1.86549C18.5761 1.86549 15.8966 4.03111 15.4018 6.97058L12.8531 22.1505C12.7473 22.7831 12.1716 23.248 11.4931 23.248C10.8178 23.248 10.239 22.7831 10.1332 22.1505L6.51392 0.509037H1.42578Z" fill="#5500F9"/>
<path d="M66.2483 27.9763C62.5854 27.9763 59.5948 26.6904 57.6062 24.26C55.9195 22.2003 55.0264 19.3962 55.0264 16.1537C55.0264 12.9111 55.9164 10.11 57.6062 8.04732C59.5948 5.61689 62.5854 4.33105 66.2483 4.33105C69.9111 4.33105 72.9018 5.61689 74.8903 8.04732C76.5771 10.107 77.4702 12.9111 77.4702 16.1537C77.4702 19.3962 76.5802 22.1974 74.8903 24.26C72.9018 26.6904 69.9111 27.9763 66.2483 27.9763ZM66.2483 8.43572C63.9952 8.43572 62.2836 9.27725 61.1601 10.6484C60.0896 11.9578 59.5232 13.8615 59.5232 16.1537C59.5232 18.4458 60.0896 20.3495 61.1601 21.6589C62.2836 23.0301 63.9952 23.8716 66.2483 23.8716C68.5014 23.8716 70.213 23.0301 71.3364 21.6589C72.407 20.3495 72.9733 18.4458 72.9733 16.1537C72.9733 13.8615 72.407 11.9578 71.3364 10.6484C70.213 9.27725 68.5014 8.43572 66.2483 8.43572Z" fill="#5500F9"/>
</svg>
